<svg version="1.0" xmlns="http://www.w3.org/2000/svg" xmlns:xlink="http://www.w3.org/1999/xlink" viewBox="0 0 340 80" color-interpolation-filters="sRGB" style="margin:auto"><g fill="#00adee" class="prefix__icon-text-wrapper prefix__icon-svg-group prefix__iconsvg"><g transform="translate(25.115 8.999)"><path class="prefix__image-rect" fill="none" d="M0 0h60v60.002H0z"/><svg width="60" height="60.002" class="prefix__image-svg-svg prefix__primary" overflow="visible"><svg xmlns="http://www.w3.org/2000/svg" viewBox="13.19 9 961.34 961.38"><path opacity=".6" fill="#00ADEE" d="M974.52 119.83C974.52 58.65 924.93 9 863.68 9H341.2c-61.24 0-110.85 49.65-110.85 110.83v522.54c0 61.24 49.61 110.83 110.85 110.83h522.48c61.25 0 110.85-49.58 110.85-110.83V119.83z"/><path opacity=".81" fill="#00ADEE" d="M970.29 825.97c0-13.91-11.28-25.15-25.17-25.15H826.33c-13.88 0-25.2 11.25-25.2 25.15v118.79c0 13.91 11.32 25.19 25.2 25.19h118.78c13.89 0 25.17-11.28 25.17-25.19V825.97zM202.19 25.49c0-8.93-7.27-16.2-16.21-16.2h-76.62c-8.98 0-16.22 7.27-16.22 16.2v76.59c0 9 7.24 16.25 16.22 16.25h76.62c8.94 0 16.21-7.25 16.21-16.25V25.49z"/><path opacity=".8" fill="#00ADEE" d="M612.85 459.97c0-49.35-39.96-89.29-89.29-89.29h-421.1c-49.29 0-89.27 39.94-89.27 89.29v421.08c0 49.35 39.99 89.33 89.27 89.33h421.1c49.32 0 89.29-39.98 89.29-89.33V459.97z"/></svg></svg></g><path d="M121.279 31.707l5.64.132q-.084 1.764-.12 3.516-.024 1.752-.048 3.168-.024 1.656-.024 3.18-.036 1.488-.144 3.084-.096 1.584-.36 3.084-.252 1.5-.696 2.832-.432 1.332-1.14 2.34-.696.996-1.692 1.584-.984.588-2.34.588-1.116-.084-2.112-.636-.432-.252-.888-.612-.444-.348-.864-.888-.408-.528-.768-1.248-.372-.72-.624-1.68-.672 1.764-1.572 2.724-.9.96-1.704 1.416-.96.528-1.932.636-1.104 0-1.884-.492-.78-.492-1.308-1.368-.54-.864-.84-2.04-.312-1.164-.48-2.52-.156-1.356-.216-2.832-.048-1.476-.048-2.928 0-.492.012-.708l.024-.432q0-.216.024-.6.024-.372.036-1.176.012-.804.012-2.172.012-1.38.012-3.612v-1.356q0-.672-.036-1.248l5.82.168q-.696 3.648-.936 7.152-.228 3.516-.228 7.02 0 2.268.3 3.3.312 1.02 1.212 1.02.408 0 .756-.456.336-.468.588-1.236.264-.768.456-1.752t.312-2.016q.132-1.032.192-2.04t.06-1.824q0-.864-.012-1.668-.012-.792-.06-1.668-.048-.876-.12-1.848-.072-.972-.204-2.184l5.256.264q-.408 2.424-.684 4.692-.288 2.268-.288 4.5 0 1.272.12 2.592.108 1.32.372 2.4.252 1.08.66 1.764.408.684.984.684.72 0 1.176-.864.468-.876.72-2.28.264-1.404.36-3.156.108-1.752.108-3.516 0-.192-.024-.888t-.108-1.824q-.072-1.128-.24-2.664-.168-1.536-.468-3.408zm22.716 22.848l-4.74.288q-.12-.636-.216-1.296-.108-.648-.168-1.344-.948 1.392-2.256 2.136-1.308.756-2.868.756-.804 0-1.644-.264-.84-.252-1.524-.888-.696-.636-1.128-1.74-.444-1.092-.444-2.772 0-1.392.408-2.436.408-1.032 1.068-1.812.66-.78 1.476-1.356.816-.564 1.632-1.02.804-.456 1.548-.84.732-.396 1.212-.78.9-.72 1.56-1.524.672-.816 1.08-1.692-.084-1.416-.3-2.328-.216-.912-.564-1.464-.348-.54-.852-.756-.492-.216-1.128-.216-.948 0-1.596.408-.648.42-1.056.984.516.336.792.696.276.372.42.72.168.396.18.804 0 1.392-.78 2.136-.792.732-2.028.732-.636 0-1.164-.3-.54-.288-.936-.828-.396-.528-.624-1.272-.228-.732-.228-1.596 0-.864.396-1.824.384-.96 1.248-1.8.864-.828 2.208-1.368 1.356-.54 3.288-.54 1.932 0 3.3.744 1.38.744 2.256 1.992.876 1.236 1.284 2.856.396 1.62.396 3.348 0 1.284-.024 2.808-.012 1.512-.012 3.108 0 1.344.012 2.676.024 1.332.084 2.568.06 1.248.168 2.34.096 1.092.264 1.956zm-5.208-7.356l.168-4.368q-.72.852-1.536 1.476-.624.432-1.332.96-.708.528-1.308 1.128-.6.6-1.008 1.236-.396.648-.396 1.332 0 .924.456 1.572.444.66 1.26.66.768 0 1.356-.408.6-.408 1.056-1.02.468-.6.78-1.296.324-.708.504-1.272zm7.692-24.864l5.328.132q-.12 2.496-.228 4.632-.096 2.136-.168 4.02-.072 1.884-.108 3.588-.048 1.704-.072 3.36-.036 1.668-.048 3.348-.012 1.68-.012 3.528v4.38q0 2.34.048 5.196l-4.656-.108q.12-3.096.156-6.096.048-3.012.048-6.168 0-2.112-.024-4.332-.024-2.232-.06-4.656-.036-2.436-.096-5.112-.048-2.688-.108-5.712zm7.848 0l5.34.132q-.12 2.496-.228 4.632-.108 2.136-.18 4.02-.072 1.884-.108 3.588l-.072 3.36q-.036 1.668-.036 3.348-.012 1.68-.012 3.528v4.38q0 2.34.036 5.196l-4.656-.108q.132-3.096.168-6.096.036-3.012.036-6.168 0-2.112-.012-4.332-.024-2.232-.06-4.656-.048-2.436-.096-5.112-.048-2.688-.12-5.712zm12.756 39.996l-5.496-.108q.252-2.952.42-5.796.18-2.856.3-5.652.12-2.796.192-5.592.06-2.784.06-5.64 0-3.792-.132-7.836l4.656-.06-.12 2.28q.888-1.728 2.052-2.688 1.164-.96 2.436-.96 1.548 0 2.748.66 1.188.672 2.016 2.1.816 1.44 1.248 3.672.432 2.22.432 5.352 0 3.588-.6 6.048-.588 2.448-1.572 3.96-.984 1.5-2.232 2.16-1.236.648-2.532.648-.672-.06-1.392-.324-.612-.228-1.356-.732-.756-.492-1.488-1.416.036 2.436.12 4.896.084 2.46.24 5.028zm-.408-14.424v.372q.204.396.492.828.288.444.624.828.348.372.732.624.384.24.84.24.612 0 1.224-.492.6-.504 1.068-1.584.48-1.08.78-2.784.288-1.716.288-4.116 0-1.968-.192-3.396t-.516-2.352q-.336-.936-.78-1.38-.456-.444-.948-.444-.408 0-.804.3-.384.3-.744.756-.36.468-.672 1.044-.3.588-.564 1.152-.252.564-.432 1.056-.192.492-.276.78-.06 2.196-.084 4.308-.036 2.112-.036 4.26zm28.092 6.648l-4.728.288q-.132-.636-.228-1.296-.108-.648-.168-1.344-.936 1.392-2.256 2.136-1.308.756-2.868.756-.804 0-1.644-.264-.84-.252-1.524-.888t-1.128-1.74q-.444-1.092-.444-2.772 0-1.392.408-2.436.42-1.032 1.068-1.812.66-.78 1.476-1.356.828-.564 1.632-1.02.816-.456 1.548-.84.744-.396 1.212-.78.9-.72 1.572-1.524.66-.816 1.068-1.692-.072-1.416-.288-2.328-.216-.912-.564-1.464-.348-.54-.852-.756-.504-.216-1.14-.216-.948 0-1.596.408-.636.42-1.056.984.516.336.792.696.276.372.42.72.168.396.192.804 0 1.392-.792 2.136-.792.732-2.016.732-.636 0-1.176-.3-.528-.288-.936-.828-.396-.528-.624-1.272-.228-.732-.228-1.596 0-.864.396-1.824.384-.96 1.248-1.8.864-.828 2.22-1.368 1.356-.54 3.276-.54 1.932 0 3.3.744 1.38.744 2.256 1.992.888 1.236 1.284 2.856.396 1.62.396 3.348 0 1.284-.012 2.808-.024 1.512-.024 3.108 0 1.344.024 2.676.012 1.332.084 2.568.06 1.248.156 2.34.108 1.092.264 1.956zm-5.208-7.356l.168-4.368q-.72.852-1.536 1.476-.612.432-1.32.96-.708.528-1.32 1.128-.6.6-.996 1.236-.408.648-.408 1.332 0 .924.456 1.572.444.66 1.272.66.756 0 1.356-.408.588-.408 1.056-1.02.456-.6.768-1.296.324-.708.504-1.272zm12.6 15.132l-5.496-.108q.24-2.952.42-5.796.168-2.856.288-5.652.132-2.796.192-5.592.06-2.784.06-5.64 0-3.792-.12-7.836l4.656-.06-.132 2.28q.888-1.728 2.052-2.688 1.176-.96 2.448-.96 1.536 0 2.736.66 1.2.672 2.016 2.1.816 1.44 1.248 3.672.432 2.22.432 5.352 0 3.588-.588 6.048-.6 2.448-1.584 3.96-.984 1.5-2.22 2.16-1.248.648-2.532.648-.684-.06-1.404-.324-.612-.228-1.356-.732-.756-.492-1.488-1.416.036 2.436.12 4.896.084 2.46.252 5.028zm-.42-14.424v.372q.216.396.492.828.288.444.636.828.336.372.72.624.396.24.84.24.624 0 1.224-.492.6-.504 1.08-1.584.468-1.08.768-2.784.3-1.716.3-4.116 0-1.968-.204-3.396-.192-1.428-.516-2.352-.336-.936-.78-1.38-.456-.444-.948-.444-.408 0-.792.3-.396.3-.756.756-.36.468-.66 1.044-.312.588-.564 1.152-.264.564-.444 1.056-.18.492-.264.78-.06 2.196-.096 4.308-.036 2.112-.036 4.26zm28.308 1.692q0 1.2-.552 2.268-.564 1.068-1.5 1.848-.948.78-2.22 1.236-1.272.444-2.7.444-.972 0-1.956-.264t-1.884-.876q-.9-.624-1.704-1.62-.792-1.008-1.38-2.472-.588-1.452-.924-3.408-.336-1.956-.336-4.5 0-2.4.336-4.248.336-1.848.924-3.216.588-1.38 1.368-2.316.78-.924 1.668-1.512.888-.588 1.848-.828.948-.252 1.872-.252 1.38 0 2.604.444 1.236.444 2.16 1.308.912.852 1.464 2.112.54 1.272.54 2.904 0 1.476-.6 2.988-.612 1.512-1.8 2.844-1.188 1.344-2.94 2.448-1.752 1.092-4.032 1.728.12 1.272.36 2.316.24 1.044.588 1.788.36.744.852 1.152.48.408 1.116.408.408-.024.78-.144.324-.108.66-.324.336-.228.564-.66-.528-.252-.816-.636-.288-.396-.432-.744-.168-.408-.18-.852 0-.984.384-1.608.384-.612.924-.96.528-.348 1.08-.48.564-.132.888-.132.348 0 .852.144t.972.552q.468.408.816 1.152.336.756.336 1.968zm-5.064-12.9q0-.744-.132-1.404-.144-.672-.396-1.164-.252-.492-.636-.792-.384-.3-.876-.3-.84 0-1.368.78-.528.768-.864 2.04-.324 1.272-.444 2.928-.132 1.656-.132 3.468v1.5q1.044-.564 1.944-1.32.888-.756 1.536-1.668.648-.912 1.008-1.944.36-1.02.36-2.124zm12.504 18.144l-5.472.408q.324-3.672.48-7.08.156-3.42.156-6.84 0-2.424-.072-4.848-.072-2.436-.264-4.992l4.62-.252q-.036.456-.06.888-.024.42-.024.84.72-1.116 1.572-1.74.852-.624 1.584-.912.84-.348 1.704-.432 1.5 0 2.568.468 1.068.456 1.74 1.188.672.732.984 1.62.312.888.312 1.728 0 .864-.192 1.752-.18.876-.624 1.584-.444.708-1.164 1.152-.732.432-1.8.432t-1.68-.384q-.612-.396-.936-.936-.312-.54-.408-1.128-.096-.576-.096-.996 0-.288.108-.636.108-.36.312-.732.204-.372.504-.732.312-.36.72-.66-.12-.048-.252-.06-.132-.024-.264-.024-1.02 0-1.824.648-.792.636-1.38 1.788-.588 1.152-.96 2.712-.384 1.56-.564 3.396.096 3.18.288 6.3.18 3.12.384 6.48zm28.008-17.94q-.036.06-.06.3-.012.252-.024.624-.012.36-.012.828v1.944q0 .504.012.936.012.432.024.768.024.336.06.528-2.868-.168-6.132-.228-3.252-.06-6.636-.06h-3.528q.036-.696.084-1.524.036-.816.036-1.716 0-1.128-.12-2.4.924.144 1.992.24 1.08.108 2.244.18 1.152.072 2.364.096 1.212.036 2.376.036 1.188 0 2.304-.036 1.104-.024 2.064-.096.948-.072 1.704-.18.756-.096 1.248-.24zm2.94-13.68l5.964-.084q-.24 2.688-.432 5.328-.18 2.628-.324 5.292.696-1.248 1.5-1.932.792-.684 1.488-1.02.828-.372 1.608-.444 1.476 0 2.616.612 1.152.612 1.944 2.1t1.2 3.96q.408 2.472.408 6.18 0 3.42-.648 5.748-.648 2.328-1.656 3.756-1.02 1.428-2.256 2.052-1.248.624-2.448.624-.132 0-.552-.048-.42-.048-1.008-.312-.6-.252-1.272-.768-.684-.516-1.296-1.428v2.256l-4.608-.084q.18-3 .252-5.976.072-2.964.072-5.94 0-5.004-.168-9.936-.156-4.932-.384-9.936zm7.44 28.38q.108.036.216.036h.24q.552 0 1.152-.372.612-.384 1.104-1.344.492-.96.816-2.616.324-1.656.324-4.212 0-2.304-.204-3.828-.216-1.524-.588-2.448-.372-.924-.864-1.308-.492-.372-1.02-.372-.564 0-1.02.3-.456.288-.828.78-.372.48-.672 1.092-.3.612-.516 1.224-.228.6-.384 1.164t-.24.948q-.12 4.044-.12 8.028.468.984.948 1.56.468.564.84.876.432.372.816.492zm18.228 3.564q-2.028 0-3.492-.876-1.464-.888-2.424-2.46-.948-1.584-1.404-3.756-.444-2.172-.444-4.74 0-2.964.528-5.448.54-2.484 1.572-4.272 1.032-1.776 2.568-2.772 1.524-.996 3.516-.996 2.004 0 3.456.84 1.464.84 2.412 2.352.96 1.524 1.404 3.636.456 2.112.456 4.656 0 1.308-.156 2.844-.156 1.548-.516 3.084t-.948 2.964q-.6 1.416-1.5 2.532-.9 1.104-2.136 1.764-1.248.648-2.892.648zm3.204-15.36q0-1.548-.144-2.796-.144-1.236-.456-2.1-.324-.864-.804-1.32-.48-.468-1.164-.468-.732 0-1.368.78-.636.78-1.116 2.256-.48 1.476-.756 3.6-.288 2.124-.288 4.788 0 1.728.168 3.084.168 1.368.492 2.316.324.96.816 1.464.48.504 1.128.504.66 0 1.176-.552.516-.54.888-1.464.384-.924.66-2.136.276-1.224.444-2.568.156-1.344.24-2.736.084-1.392.084-2.652zm22.332 14.232l-5.616.888q-.636-1.848-1.332-3.6-.696-1.752-1.476-3.492-.6 1.572-1.116 3.24-.528 1.68-1.044 3.528l-6.168-.636q1.644-2.94 3.144-5.592 1.512-2.652 2.904-5.34-1.416-2.856-2.976-5.628l-3.192-5.7 5.916-.264q.576 1.848 1.188 3.552.6 1.704 1.296 3.3.696-1.536 1.32-3.18.636-1.644 1.188-3.408l5.76.576q-1.872 2.808-3.384 5.376-1.524 2.568-2.748 5.172 1.416 2.784 3 5.532 1.596 2.748 3.336 5.676z" data-gra="path-name"/></g></svg>