<svg data-v-2cb57da0="" version="1.0" xmlns="http://www.w3.org/2000/svg"
  xmlns:xlink="http://www.w3.org/1999/xlink" width="100%" height="100%"
  viewBox="0 0 340.000000 80.000000" preserveAspectRatio="xMidYMid meet"
  color-interpolation-filters="sRGB" style="margin: auto;">
  <g data-v-2cb57da0="" fill="#00adee" class="icon-text-wrapper icon-svg-group iconsvg"
    transform="translate(25.11499786376953,8.99880027770996)">
    <g class="iconsvg-imagesvg" transform="translate(0,0)">
      <g>
        <rect fill="#00adee" fill-opacity="0" stroke-width="2" x="0" y="0" width="60"
          height="60.00240009600384" class="image-rect"></rect>
        <svg x="0" y="0" width="60" height="60.00240009600384" filtersec="colorsb2411737537"
          class="image-svg-svg primary" style="overflow: visible;">
          <svg xmlns="http://www.w3.org/2000/svg"
            viewBox="13.189994812011719 9 961.3399047851562 961.3800048828125">
            <path opacity=".6" fill="#00ADEE"
              d="M974.52 119.83C974.52 58.65 924.93 9 863.68 9H341.2c-61.24 0-110.85 49.65-110.85 110.83v522.54c0 61.24 49.61 110.83 110.85 110.83h522.48c61.25 0 110.85-49.58 110.85-110.83V119.83z"></path>
            <path opacity=".81" fill="#00ADEE"
              d="M970.29 825.97c0-13.91-11.28-25.15-25.17-25.15H826.33c-13.88 0-25.2 11.25-25.2 25.15v118.79c0 13.91 11.32 25.19 25.2 25.19h118.78c13.89 0 25.17-11.28 25.17-25.19V825.97zM202.19 25.49c0-8.93-7.27-16.2-16.21-16.2h-76.62c-8.98 0-16.22 7.27-16.22 16.2v76.59c0 9 7.24 16.25 16.22 16.25h76.62c8.94 0 16.21-7.25 16.21-16.25V25.49z"></path>
            <path opacity=".8" fill="#00ADEE"
              d="M612.85 459.97c0-49.35-39.96-89.29-89.29-89.29h-421.1c-49.29 0-89.27 39.94-89.27 89.29v421.08c0 49.35 39.99 89.33 89.27 89.33h421.1c49.32 0 89.29-39.98 89.29-89.33V459.97z"></path>
          </svg>
        </svg> <!---->
      </g>
    </g>
    <g transform="translate(80,13.336200714111328)">
      <g data-gra="path-name" fill-rule="" class="tp-name iconsvg-namesvg">
        <g transform="scale(1.2)">
          <g>
            <path
              d="M14.7-18.58L19.4-18.47Q19.33-17 19.3-15.54 19.28-14.08 19.26-12.9L19.26-12.9Q19.24-11.52 19.24-10.25L19.24-10.25Q19.21-9.01 19.12-7.68 19.04-6.36 18.82-5.11 18.61-3.86 18.24-2.75 17.88-1.64 17.29-0.8 16.71 0.03 15.88 0.52 15.06 1.01 13.93 1.01L13.93 1.01Q13 0.94 12.17 0.48L12.17 0.48Q11.81 0.27 11.43-0.03 11.06-0.32 10.71-0.77 10.37-1.21 10.07-1.81 9.76-2.41 9.55-3.21L9.55-3.21Q8.99-1.74 8.24-0.94 7.49-0.14 6.82 0.24L6.82 0.24Q6.02 0.68 5.21 0.77L5.21 0.77Q4.29 0.77 3.64 0.36 2.99-0.05 2.55-0.78 2.1-1.5 1.85-2.48 1.59-3.45 1.45-4.58 1.32-5.71 1.27-6.94 1.23-8.17 1.23-9.38L1.23-9.38Q1.23-9.79 1.24-9.97 1.25-10.15 1.26-10.33 1.26-10.51 1.28-10.83 1.3-11.14 1.31-11.81 1.32-12.48 1.32-13.62 1.33-14.77 1.33-16.63L1.33-16.63Q1.33-17.21 1.33-17.76 1.33-18.32 1.3-18.8L1.3-18.8 6.15-18.66Q5.57-15.62 5.37-12.7 5.18-9.77 5.18-6.85L5.18-6.85Q5.18-4.96 5.43-4.1 5.69-3.25 6.44-3.25L6.44-3.25Q6.78-3.25 7.07-3.63 7.35-4.02 7.56-4.66 7.78-5.3 7.94-6.12 8.1-6.94 8.2-7.8 8.31-8.66 8.36-9.5 8.41-10.34 8.41-11.02L8.41-11.02Q8.41-11.74 8.4-12.41 8.39-13.07 8.35-13.8 8.31-14.53 8.25-15.34 8.19-16.15 8.08-17.16L8.08-17.16 12.46-16.94Q12.12-14.92 11.89-13.03 11.65-11.14 11.65-9.28L11.65-9.28Q11.65-8.22 11.75-7.12 11.84-6.02 12.06-5.12 12.27-4.22 12.61-3.65 12.95-3.08 13.43-3.08L13.43-3.08Q14.03-3.08 14.41-3.8 14.8-4.53 15.01-5.7 15.23-6.87 15.31-8.33 15.4-9.79 15.4-11.26L15.4-11.26Q15.4-11.42 15.38-12 15.36-12.58 15.29-13.52 15.23-14.46 15.09-15.74 14.95-17.02 14.7-18.58L14.7-18.58ZM33.63 0.46L29.68 0.7Q29.58 0.17 29.5-0.38 29.41-0.92 29.36-1.5L29.36-1.5Q28.57-0.34 27.48 0.28 26.39 0.91 25.09 0.91L25.09 0.91Q24.42 0.91 23.72 0.69 23.02 0.48 22.45-0.05 21.87-0.58 21.51-1.5 21.14-2.41 21.14-3.81L21.14-3.81Q21.14-4.97 21.48-5.84 21.82-6.7 22.37-7.35 22.92-8 23.6-8.48 24.28-8.95 24.96-9.33 25.63-9.71 26.25-10.03 26.86-10.36 27.26-10.68L27.26-10.68Q28.01-11.28 28.56-11.95 29.12-12.63 29.46-13.36L29.46-13.36Q29.39-14.54 29.21-15.3 29.03-16.06 28.74-16.52 28.45-16.97 28.03-17.15 27.62-17.33 27.09-17.33L27.09-17.33Q26.3-17.33 25.76-16.99 25.22-16.64 24.88-16.17L24.88-16.17Q25.31-15.89 25.54-15.59 25.77-15.28 25.89-14.99L25.89-14.99Q26.03-14.66 26.04-14.32L26.04-14.32Q26.04-13.16 25.39-12.54 24.73-11.93 23.7-11.93L23.7-11.93Q23.17-11.93 22.73-12.18 22.28-12.42 21.95-12.87 21.62-13.31 21.43-13.93 21.24-14.54 21.24-15.26L21.24-15.26Q21.24-15.98 21.57-16.78 21.89-17.58 22.61-18.28 23.33-18.97 24.45-19.42 25.58-19.87 27.19-19.87L27.19-19.87Q28.8-19.87 29.94-19.25 31.09-18.63 31.82-17.59 32.55-16.56 32.89-15.21 33.22-13.86 33.22-12.42L33.22-12.42Q33.22-11.35 33.2-10.08 33.19-8.82 33.19-7.49L33.19-7.49Q33.19-6.37 33.2-5.26 33.22-4.15 33.27-3.12 33.32-2.08 33.41-1.17 33.49-0.26 33.63 0.46L33.63 0.46ZM29.29-5.67L29.43-9.31Q28.83-8.6 28.15-8.08L28.15-8.08Q27.63-7.72 27.04-7.28 26.45-6.84 25.95-6.34 25.45-5.84 25.11-5.31 24.78-4.77 24.78-4.2L24.78-4.2Q24.78-3.43 25.16-2.89 25.53-2.34 26.21-2.34L26.21-2.34Q26.85-2.34 27.34-2.68 27.84-3.02 28.22-3.53 28.61-4.03 28.87-4.61 29.14-5.2 29.29-5.67L29.29-5.67ZM35.7-26.39L40.14-26.28Q40.04-24.2 39.95-22.42 39.87-20.64 39.81-19.07 39.75-17.5 39.72-16.08 39.68-14.66 39.66-13.28 39.63-11.89 39.62-10.49 39.61-9.09 39.61-7.55L39.61-7.55Q39.61-5.84 39.61-3.9 39.61-1.95 39.65 0.43L39.65 0.43 35.77 0.34Q35.87-2.24 35.9-4.74 35.94-7.25 35.94-9.88L35.94-9.88Q35.94-11.64 35.92-13.49 35.9-15.35 35.87-17.37 35.84-19.4 35.79-21.63 35.75-23.87 35.7-26.39L35.7-26.39ZM42.24-26.39L46.69-26.28Q46.59-24.2 46.5-22.42 46.41-20.64 46.35-19.07 46.29-17.5 46.26-16.08 46.23-14.66 46.2-13.28 46.17-11.89 46.17-10.49 46.16-9.09 46.16-7.55L46.16-7.55Q46.16-5.84 46.16-3.9 46.16-1.95 46.19 0.43L46.19 0.43 42.31 0.34Q42.42-2.24 42.45-4.74 42.48-7.25 42.48-9.88L42.48-9.88Q42.48-11.64 42.47-13.49 42.45-15.35 42.42-17.37 42.38-19.4 42.34-21.63 42.3-23.87 42.24-26.39L42.24-26.39ZM52.87 6.94L48.29 6.85Q48.5 4.39 48.64 2.02 48.79-0.36 48.89-2.69 48.99-5.02 49.05-7.35 49.1-9.67 49.1-12.05L49.1-12.05Q49.1-15.21 48.99-18.58L48.99-18.58 52.87-18.63 52.77-16.73Q53.51-18.17 54.48-18.97 55.45-19.77 56.51-19.77L56.51-19.77Q57.8-19.77 58.8-19.22 59.79-18.66 60.48-17.47 61.16-16.27 61.52-14.41 61.88-12.56 61.88-9.95L61.88-9.95Q61.88-6.96 61.38-4.91 60.89-2.87 60.07-1.61 59.25-0.36 58.21 0.19 57.18 0.73 56.1 0.73L56.1 0.73Q55.54 0.68 54.94 0.46L54.94 0.46Q54.43 0.27 53.81-0.15 53.18-0.56 52.57-1.33L52.57-1.33Q52.6 0.7 52.67 2.75 52.74 4.8 52.87 6.94L52.87 6.94ZM52.53-5.08L52.53-4.77Q52.7-4.44 52.94-4.08 53.18-3.71 53.46-3.39 53.75-3.08 54.07-2.87 54.39-2.67 54.77-2.67L54.77-2.67Q55.28-2.67 55.79-3.08 56.29-3.5 56.68-4.4 57.08-5.3 57.33-6.72 57.57-8.15 57.57-10.15L57.57-10.15Q57.57-11.79 57.41-12.98 57.25-14.17 56.98-14.94 56.7-15.72 56.33-16.09 55.95-16.46 55.54-16.46L55.54-16.46Q55.2-16.46 54.87-16.21 54.55-15.96 54.25-15.58 53.95-15.19 53.69-14.71 53.44-14.22 53.22-13.75 53.01-13.28 52.86-12.87 52.7-12.46 52.63-12.22L52.63-12.22Q52.58-10.39 52.56-8.63 52.53-6.87 52.53-5.08L52.53-5.08ZM75.94 0.46L72 0.7Q71.89 0.17 71.81-0.38 71.72-0.92 71.67-1.5L71.67-1.5Q70.89-0.34 69.79 0.28 68.7 0.91 67.4 0.91L67.4 0.91Q66.73 0.91 66.03 0.69 65.33 0.48 64.76-0.05 64.19-0.58 63.82-1.5 63.45-2.41 63.45-3.81L63.45-3.81Q63.45-4.97 63.79-5.84 64.14-6.7 64.68-7.35 65.23-8 65.91-8.48 66.6-8.95 67.27-9.33 67.95-9.71 68.56-10.03 69.18-10.36 69.57-10.68L69.57-10.68Q70.32-11.28 70.88-11.95 71.43-12.63 71.77-13.36L71.77-13.36Q71.71-14.54 71.53-15.3 71.35-16.06 71.06-16.52 70.77-16.97 70.35-17.15 69.93-17.33 69.4-17.33L69.4-17.33Q68.61-17.33 68.07-16.99 67.54-16.64 67.19-16.17L67.19-16.17Q67.62-15.89 67.85-15.59 68.08-15.28 68.2-14.99L68.2-14.99Q68.34-14.66 68.36-14.32L68.36-14.32Q68.36-13.16 67.7-12.54 67.04-11.93 66.02-11.93L66.02-11.93Q65.49-11.93 65.04-12.18 64.6-12.42 64.26-12.87 63.93-13.31 63.74-13.93 63.55-14.54 63.55-15.26L63.55-15.26Q63.55-15.98 63.88-16.78 64.2-17.58 64.92-18.28 65.64-18.97 66.77-19.42 67.9-19.87 69.5-19.87L69.5-19.87Q71.11-19.87 72.25-19.25 73.4-18.63 74.13-17.59 74.87-16.56 75.2-15.21 75.53-13.86 75.53-12.42L75.53-12.42Q75.53-11.35 75.52-10.08 75.5-8.82 75.5-7.49L75.5-7.49Q75.5-6.37 75.52-5.26 75.53-4.15 75.59-3.12 75.64-2.08 75.72-1.17 75.81-0.26 75.94 0.46L75.94 0.46ZM71.6-5.67L71.74-9.31Q71.14-8.6 70.46-8.08L70.46-8.08Q69.95-7.72 69.36-7.28 68.77-6.84 68.26-6.34 67.76-5.84 67.43-5.31 67.09-4.77 67.09-4.2L67.09-4.2Q67.09-3.43 67.47-2.89 67.84-2.34 68.53-2.34L68.53-2.34Q69.16-2.34 69.66-2.68 70.15-3.02 70.54-3.53 70.92-4.03 71.18-4.61 71.45-5.2 71.6-5.67L71.6-5.67ZM82.1 6.94L77.52 6.85Q77.72 4.39 77.87 2.02 78.01-0.36 78.11-2.69 78.22-5.02 78.27-7.35 78.32-9.67 78.32-12.05L78.32-12.05Q78.32-15.21 78.22-18.58L78.22-18.58 82.1-18.63 81.99-16.73Q82.73-18.17 83.7-18.97 84.68-19.77 85.74-19.77L85.74-19.77Q87.02-19.77 88.02-19.22 89.02-18.66 89.7-17.47 90.38-16.27 90.74-14.41 91.1-12.56 91.1-9.95L91.1-9.95Q91.1-6.96 90.61-4.91 90.11-2.87 89.29-1.61 88.47-0.36 87.44 0.19 86.4 0.73 85.33 0.73L85.33 0.73Q84.76 0.68 84.16 0.46L84.16 0.46Q83.65 0.27 83.03-0.15 82.4-0.56 81.79-1.33L81.79-1.33Q81.82 0.7 81.89 2.75 81.96 4.8 82.1 6.94L82.1 6.94ZM81.75-5.08L81.75-4.77Q81.93-4.44 82.16-4.08 82.4-3.71 82.69-3.39 82.97-3.08 83.29-2.87 83.62-2.67 83.99-2.67L83.99-2.67Q84.51-2.67 85.01-3.08 85.51-3.5 85.91-4.4 86.3-5.3 86.55-6.72 86.8-8.15 86.8-10.15L86.8-10.15Q86.8-11.79 86.63-12.98 86.47-14.17 86.2-14.94 85.92-15.72 85.55-16.09 85.17-16.46 84.76-16.46L84.76-16.46Q84.42-16.46 84.1-16.21 83.77-15.96 83.47-15.58 83.17-15.19 82.92-14.71 82.66-14.22 82.45-13.75 82.23-13.28 82.08-12.87 81.93-12.46 81.86-12.22L81.86-12.22Q81.81-10.39 81.78-8.63 81.75-6.87 81.75-5.08L81.75-5.08ZM105.34-3.67L105.34-3.67Q105.34-2.67 104.88-1.78 104.41-0.89 103.63-0.24 102.84 0.41 101.78 0.79 100.72 1.16 99.53 1.16L99.53 1.16Q98.72 1.16 97.9 0.94 97.08 0.72 96.33 0.21 95.58-0.31 94.91-1.14 94.25-1.98 93.76-3.2 93.27-4.41 92.99-6.04 92.71-7.67 92.71-9.79L92.71-9.79Q92.71-11.79 92.99-13.33 93.27-14.87 93.76-16.01 94.25-17.16 94.9-17.94 95.55-18.71 96.29-19.2 97.03-19.69 97.83-19.89 98.62-20.1 99.39-20.1L99.39-20.1Q100.54-20.1 101.56-19.73 102.59-19.36 103.36-18.64 104.12-17.93 104.58-16.88 105.03-15.82 105.03-14.46L105.03-14.46Q105.03-13.23 104.53-11.97 104.02-10.71 103.03-9.6 102.04-8.48 100.58-7.56 99.12-6.65 97.22-6.12L97.22-6.12Q97.32-5.06 97.52-4.19 97.72-3.32 98.01-2.7 98.31-2.08 98.72-1.74 99.12-1.4 99.65-1.4L99.65-1.4Q99.99-1.42 100.3-1.52L100.3-1.52Q100.57-1.61 100.85-1.79 101.13-1.98 101.32-2.34L101.32-2.34Q100.88-2.55 100.64-2.87 100.4-3.2 100.28-3.49L100.28-3.49Q100.14-3.83 100.13-4.2L100.13-4.2Q100.13-5.02 100.45-5.54 100.77-6.05 101.22-6.34 101.66-6.63 102.12-6.74 102.59-6.85 102.86-6.85L102.86-6.85Q103.15-6.85 103.57-6.73 103.99-6.61 104.38-6.27 104.77-5.93 105.06-5.31 105.34-4.68 105.34-3.67ZM101.12-14.42L101.12-14.42Q101.12-15.04 101.01-15.59 100.89-16.15 100.68-16.56 100.47-16.97 100.15-17.22 99.83-17.47 99.42-17.47L99.42-17.47Q98.72-17.47 98.28-16.82 97.84-16.18 97.56-15.12 97.29-14.06 97.19-12.68 97.08-11.3 97.08-9.79L97.08-9.79 97.08-8.54Q97.95-9.01 98.7-9.64 99.44-10.27 99.98-11.03 100.52-11.79 100.82-12.65 101.12-13.5 101.12-14.42ZM111.54 0.7L111.54 0.7 106.98 1.04Q107.25-2.02 107.38-4.86 107.51-7.71 107.51-10.56L107.51-10.56Q107.51-12.58 107.45-14.6 107.39-16.63 107.23-18.76L107.23-18.76 111.08-18.97Q111.05-18.59 111.03-18.23 111.01-17.88 111.01-17.53L111.01-17.53Q111.61-18.46 112.32-18.98 113.03-19.5 113.64-19.74L113.64-19.74Q114.34-20.03 115.06-20.1L115.06-20.1Q116.31-20.1 117.2-19.71 118.09-19.33 118.65-18.72 119.21-18.11 119.47-17.37 119.73-16.63 119.73-15.93L119.73-15.93Q119.73-15.21 119.57-14.47 119.42-13.74 119.05-13.15 118.68-12.56 118.08-12.19 117.47-11.83 116.58-11.83L116.58-11.83Q115.69-11.83 115.18-12.15 114.67-12.48 114.4-12.93 114.14-13.38 114.06-13.87 113.98-14.35 113.98-14.7L113.98-14.7Q113.98-14.94 114.07-15.23 114.16-15.53 114.33-15.84 114.5-16.15 114.75-16.45 115.01-16.75 115.35-17L115.35-17Q115.25-17.04 115.14-17.05 115.03-17.07 114.92-17.07L114.92-17.07Q114.07-17.07 113.4-16.53 112.74-16 112.25-15.04 111.76-14.08 111.45-12.78 111.13-11.48 110.98-9.95L110.98-9.95Q111.06-7.3 111.22-4.7 111.37-2.1 111.54 0.7ZM134.88-14.25L134.88-14.25Q134.85-14.2 134.83-14 134.82-13.79 134.81-13.48 134.8-13.18 134.8-12.79 134.8-12.41 134.8-12L134.8-12Q134.8-11.59 134.8-11.17 134.8-10.75 134.81-10.39 134.82-10.03 134.83-9.75 134.85-9.47 134.88-9.31L134.88-9.31Q132.49-9.45 129.77-9.5 127.06-9.55 124.24-9.55L124.24-9.55 121.3-9.55Q121.33-10.13 121.37-10.82 121.4-11.5 121.4-12.25L121.4-12.25Q121.4-13.19 121.3-14.25L121.3-14.25Q122.07-14.13 122.96-14.05 123.86-13.96 124.83-13.9 125.79-13.84 126.8-13.82 127.81-13.79 128.78-13.79L128.78-13.79Q129.77-13.79 130.7-13.82 131.62-13.84 132.42-13.9 133.21-13.96 133.84-14.05 134.47-14.13 134.88-14.25ZM137.33-25.65L142.3-25.72Q142.1-23.48 141.94-21.28 141.79-19.09 141.67-16.87L141.67-16.87Q142.25-17.91 142.92-18.48 143.58-19.05 144.16-19.33L144.16-19.33Q144.85-19.64 145.5-19.7L145.5-19.7Q146.73-19.7 147.68-19.19 148.64-18.68 149.3-17.44 149.96-16.2 150.3-14.14 150.64-12.08 150.64-8.99L150.64-8.99Q150.64-6.14 150.1-4.2 149.56-2.26 148.72-1.07 147.87 0.12 146.84 0.64 145.8 1.16 144.8 1.16L144.8 1.16Q144.69 1.16 144.34 1.12 143.99 1.08 143.5 0.86 143 0.65 142.44 0.22 141.87-0.21 141.36-0.97L141.36-0.97 141.36 0.91 137.52 0.84Q137.67-1.66 137.73-4.14 137.79-6.61 137.79-9.09L137.79-9.09Q137.79-13.26 137.65-17.37 137.52-21.48 137.33-25.65L137.33-25.65ZM143.53-2L143.53-2Q143.62-1.97 143.71-1.97 143.81-1.97 143.91-1.97L143.91-1.97Q144.37-1.97 144.87-2.28 145.38-2.6 145.79-3.4 146.2-4.2 146.47-5.58 146.74-6.96 146.74-9.09L146.74-9.09Q146.74-11.01 146.57-12.28 146.39-13.55 146.08-14.32 145.77-15.09 145.36-15.41 144.95-15.72 144.51-15.72L144.51-15.72Q144.04-15.72 143.66-15.47 143.28-15.23 142.97-14.82 142.66-14.42 142.41-13.91 142.16-13.4 141.98-12.89 141.79-12.39 141.66-11.92 141.53-11.45 141.46-11.13L141.46-11.13Q141.36-7.76 141.36-4.44L141.36-4.44Q141.75-3.62 142.15-3.14 142.54-2.67 142.85-2.41L142.85-2.41Q143.21-2.1 143.53-2ZM158.72 0.97L158.72 0.97Q157.03 0.97 155.81 0.24 154.59-0.5 153.79-1.81 153-3.13 152.62-4.94 152.25-6.75 152.25-8.89L152.25-8.89Q152.25-11.36 152.69-13.43 153.14-15.5 154-16.99 154.86-18.47 156.14-19.3 157.41-20.13 159.07-20.13L159.07-20.13Q160.74-20.13 161.95-19.43 163.17-18.73 163.96-17.47 164.76-16.2 165.13-14.44 165.51-12.68 165.51-10.56L165.51-10.56Q165.51-9.47 165.38-8.19 165.25-6.9 164.95-5.62 164.65-4.34 164.16-3.15 163.66-1.97 162.91-1.04 162.16-0.12 161.13 0.43 160.09 0.97 158.72 0.97ZM161.39-11.83L161.39-11.83Q161.39-13.12 161.27-14.16 161.15-15.19 160.89-15.91 160.62-16.63 160.22-17.01 159.82-17.4 159.25-17.4L159.25-17.4Q158.64-17.4 158.11-16.75 157.58-16.1 157.18-14.87 156.78-13.64 156.55-11.87 156.31-10.1 156.31-7.88L156.31-7.88Q156.31-6.44 156.45-5.31 156.59-4.17 156.86-3.38 157.13-2.58 157.54-2.16 157.94-1.74 158.48-1.74L158.48-1.74Q159.03-1.74 159.46-2.2 159.89-2.65 160.2-3.42 160.52-4.19 160.75-5.2 160.98-6.22 161.12-7.34 161.25-8.46 161.32-9.62 161.39-10.78 161.39-11.83ZM180 0.03L180 0.03 175.32 0.77Q174.79-0.77 174.21-2.23 173.63-3.69 172.98-5.14L172.98-5.14Q172.48-3.83 172.05-2.44 171.61-1.04 171.18 0.5L171.18 0.5 166.04-0.03Q167.41-2.48 168.66-4.69 169.92-6.9 171.08-9.14L171.08-9.14Q169.9-11.52 168.6-13.83 167.3-16.15 165.94-18.58L165.94-18.58 170.87-18.8Q171.35-17.26 171.86-15.84 172.36-14.42 172.94-13.09L172.94-13.09Q173.52-14.37 174.04-15.74 174.57-17.11 175.03-18.58L175.03-18.58 179.83-18.1Q178.27-15.76 177.01-13.62 175.74-11.48 174.72-9.31L174.72-9.31Q175.9-6.99 177.22-4.7 178.55-2.41 180 0.03Z"
              transform="translate(-1.2300000190734863, 26.389999389648438)"></path>
          </g> <!----> <!----> <!----> <!----> <!----> <!----> <!---->
        </g>
      </g> <!---->
    </g>
  </g>
  <defs v-gra="od"></defs>
</svg>