<svg version="1.0" xmlns="http://www.w3.org/2000/svg" xmlns:xlink="http://www.w3.org/1999/xlink" viewBox="0 0 80 80" color-interpolation-filters="sRGB" style="margin:auto"><g fill="#00adee" class="prefix__icon-text-wrapper prefix__icon-svg-group prefix__iconsvg"><g transform="translate(9.115 8.999)"><path class="prefix__image-rect" fill="none" d="M0 0h60v60.002H0z"/><svg width="60" height="60.002" class="prefix__image-svg-svg prefix__primary" overflow="visible"><svg xmlns="http://www.w3.org/2000/svg" viewBox="13.19 9 961.34 961.38"><path opacity=".6" fill="#00ADEE" d="M974.52 119.83C974.52 58.65 924.93 9 863.68 9H341.2c-61.24 0-110.85 49.65-110.85 110.83v522.54c0 61.24 49.61 110.83 110.85 110.83h522.48c61.25 0 110.85-49.58 110.85-110.83V119.83z"/><path opacity=".81" fill="#00ADEE" d="M970.29 825.97c0-13.91-11.28-25.15-25.17-25.15H826.33c-13.88 0-25.2 11.25-25.2 25.15v118.79c0 13.91 11.32 25.19 25.2 25.19h118.78c13.89 0 25.17-11.28 25.17-25.19V825.97zM202.19 25.49c0-8.93-7.27-16.2-16.21-16.2h-76.62c-8.98 0-16.22 7.27-16.22 16.2v76.59c0 9 7.24 16.25 16.22 16.25h76.62c8.94 0 16.21-7.25 16.21-16.25V25.49z"/><path opacity=".8" fill="#00ADEE" d="M612.85 459.97c0-49.35-39.96-89.29-89.29-89.29h-421.1c-49.29 0-89.27 39.94-89.27 89.29v421.08c0 49.35 39.99 89.33 89.27 89.33h421.1c49.32 0 89.29-39.98 89.29-89.33V459.97z"/></svg></svg></g></g></svg>